<svg width="1049" height="331" viewBox="0 0 1049 331" fill="none" xmlns="http://www.w3.org/2000/svg">
<g clip-path="url(#clip0_46_4)">
<path d="M972.14 310H75.86C52.87 287.01 39.99 274.13 17 251.14V77.86C39.99 54.87 52.87 41.99 75.86 19H972.15C995.14 41.99 1008.02 54.87 1031.01 77.86V251.15C1008.02 274.14 995.14 287.02 972.15 310.01L972.14 310Z" fill="black" fill-opacity="0.5"/>
<path d="M17 145L0 128V68L68 0H327L344.61 17.61H483L488.2 22.8H74L16.4 80.4L17 145Z" fill="#29ABE2"/>
<path d="M17 186L0 203V263L68 331H327L344.61 313.39H483L488.2 308.2H74L16.4 250.6L17 186Z" fill="#29ABE2"/>
<path d="M1031.2 186L1048.2 203V263L980.2 331H721.2L703.59 313.39H565.2L560 308.2H974.2L1031.79 250.6L1031.2 186Z" fill="#29ABE2"/>
<path d="M1031.2 145L1048.2 128V68L980.2 0H721.2L703.59 17.61H565.2L560 22.8H974.2L1031.79 80.4L1031.2 145Z" fill="#29ABE2"/>
</g>
<defs>
<clipPath id="clip0_46_4">
<rect width="1048.2" height="331" fill="white"/>
</clipPath>
</defs>
</svg>
